<svg xmlns="http://www.w3.org/2000/svg"  viewBox="0 0 48 48" width="48px" height="48px"><path d="M 11.5 6 C 8.4802259 6 6 8.4802259 6 11.5 L 6 14.064453 A 1.50015 1.50015 0 1 0 9 14.064453 L 9 11.5 C 9 10.101774 10.101774 9 11.5 9 L 36.5 9 C 37.898226 9 39 10.101774 39 11.5 L 39 25.978516 A 1.50015 1.50015 0 1 0 42 25.978516 L 42 11.5 C 42 8.4802259 39.519774 6 36.5 6 L 11.5 6 z M 25.857422 12 C 19.214422 12 15 19.929 15 24 C 15 24 17.882 14.394 26 14 C 29.454 13.832 31.427734 15.429688 31.427734 15.429688 C 31.427734 15.429688 30.571422 12 25.857422 12 z M 25 16 A 3 3 0 0 0 25 22 A 3 3 0 0 0 25 16 z M 7.4765625 19.308594 A 1.50015 1.50015 0 0 0 6 20.830078 L 6 36.5 C 6 39.519774 8.4802259 42 11.5 42 L 36.5 42 C 39.519774 42 42 39.519774 42 36.5 L 42 31.595703 A 1.50015 1.50015 0 1 0 39 31.595703 L 39 36.5 C 39 37.898226 37.898226 39 36.5 39 L 11.5 39 C 10.101774 39 9 37.898226 9 36.5 L 9 20.830078 A 1.50015 1.50015 0 0 0 7.4765625 19.308594 z M 27 24.25 C 25.755 24.868 24.447 25 23 25 L 23 34 C 23 35.105 23.895 36 25 36 C 26.105 36 27 35.105 27 34 L 27 24.25 z"/></svg>