<svg xmlns="http://www.w3.org/2000/svg" xml:space="preserve" viewBox="0 0 16 16" id="nvidia">
  <g fill="#4CAF50">
    <path d="M6.025 5.909c1.334 0 2.55 1.032 2.601 1.076a.5.5 0 0 1-.651.759c-.01-.008-.99-.834-1.95-.834-.008-.001-.017.002-.025.002v2.072c.206.062.426.106.675.106 1.428 0 3.116-1.151 4.129-2.037C9.674 6.123 7.754 5 6.35 5c-.114 0-.232.014-.35.028v.883l.025-.002z"></path>
    <path d="M15.5 2h-9a.5.5 0 0 0-.5.5v1.525c.117-.011.234-.025.35-.025 1.988 0 4.456 1.646 5.544 2.684.099.093.154.223.155.358s-.054.266-.15.361c-.281.275-2.814 2.688-5.225 2.688-.241 0-.463-.029-.675-.071v.925c.123.028.245.055.351.055 1.394 0 5.506-1.137 6.8-2.403a.5.5 0 0 1 .699.715C12.291 10.838 7.936 12 6.35 12c-.111 0-.233-.034-.35-.052V13.5a.5.5 0 0 0 .5.5h9a.5.5 0 0 0 .5-.5v-11a.5.5 0 0 0-.5-.5z"></path>
    <path d="M4.367 7.527c.36-.243 1.002-.605 1.633-.615V5.911c-1.325.013-2.525 1.03-2.576 1.073a.499.499 0 0 0-.147.54c.032.096.747 2.107 2.723 2.496V8.985c-.896-.268-1.407-1.017-1.633-1.458z"></path>
    <path d="M1.275 7.209c.36-.193.728-.402 1.097-.613C3.615 5.887 4.895 5.163 6 5.028V4.025c-1.341.124-2.753.921-4.123 1.703-.543.309-1.079.615-1.597.868a.502.502 0 0 0-.175.757C1.804 9.524 4.219 11.687 6 11.948v-1.003c-1.182-.263-3.072-1.75-4.725-3.736z"></path>
  </g>
</svg>
